<?xml version="1.0" encoding="utf-8"?>
<svg viewBox="-398.308 35.063 203.958 203.952" width="203.958" height="203.952" xmlns="http://www.w3.org/2000/svg">
    <style>
      path {
      fill: black;
      }
      @media (prefers-color-scheme: dark) {
      path {
      fill: white;
      }
      }
    </style>
  <path d="M108.482 4.02441C52.1576 4.02441 6.50287 49.6775 6.50287 106C6.50287 162.322 52.1576 207.976 108.482 207.976C164.806 207.976 210.461 162.322 210.461 106C210.461 49.6775 164.806 4.02441 108.482 4.02441ZM171.201 136.07C159.951 159.281 136.165 175.285 108.642 175.293C70.2089 175.293 39.0418 144.039 39.1507 105.608C39.2015 87.492 46.184 71.0017 57.5868 58.663C58.1094 58.0969 59.0239 58.7501 58.6465 59.4251C53.9866 67.692 51.2576 77.6573 51.2576 88.3847C51.2576 116.996 70.6081 140.2 94.4734 140.2C109.505 140.2 122.745 130.989 130.482 117.025C130.649 116.727 131.012 116.604 131.324 116.749L170.882 135.199C171.215 135.344 171.361 135.743 171.201 136.07ZM170.882 76.4162L130.62 95.1927C130.3 95.3452 129.93 95.2073 129.763 94.8952C125.561 86.7807 116.829 81.3879 106.907 82.092C95.1702 82.9194 85.6982 92.4347 84.907 104.171C84.1667 115.189 90.9387 124.726 100.607 128.188C100.817 128.26 100.737 128.42 100.483 128.427C100.258 128.435 100.026 128.435 99.7938 128.435C78.5488 128.435 61.3176 107.785 61.3176 82.3097C61.3176 81.7654 61.3248 81.2283 61.3393 80.6912C62.0361 56.5727 81.7424 37.3171 105.847 36.3735C106.769 36.3372 107.691 36.3227 108.62 36.3227C136.151 36.3227 159.936 52.3267 171.186 75.5452C171.361 75.8646 171.215 76.2638 170.882 76.4162Z" transform="matrix(1, 0, 0, 1, -404.811005, 31.038778)"/>
</svg>
